<svg width="28" height="28" viewBox="0 0 28 28" fill="none" xmlns="http://www.w3.org/2000/svg">
<path d="M11.8348 8.95252C12.1137 9.22596 12.1137 9.67987 11.8402 9.95877L8.5207 13.2892H21.1699C21.5582 13.2892 21.8754 13.6064 21.8754 14.0002C21.8754 14.3939 21.5582 14.7111 21.1699 14.7111H8.5207L11.8457 18.0416C12.1191 18.3205 12.1137 18.7689 11.8402 19.0478C11.5613 19.3213 11.1184 19.3213 10.8395 19.0424L6.3332 14.5033C6.27305 14.4377 6.22383 14.3666 6.18555 14.2791C6.14727 14.1916 6.13086 14.0986 6.13086 14.0056C6.13086 13.8197 6.20195 13.6447 6.3332 13.508L10.8395 8.96893C11.1074 8.68455 11.5559 8.67908 11.8348 8.95252Z" fill="black"/>
</svg>
