<svg width="20" height="20" viewBox="0 0 20 20" fill="none" xmlns="http://www.w3.org/2000/svg">
<path fill-rule="evenodd" clip-rule="evenodd" d="M15.7085 5.37567C16.0079 5.07627 16.0079 4.59084 15.7085 4.29144C15.4091 3.99204 14.9237 3.99204 14.6243 4.29144L9.99974 8.916L5.3752 4.29144C5.07578 3.99204 4.59036 3.99204 4.29096 4.29144C3.99156 4.59084 3.99156 5.07627 4.29096 5.37567L8.91552 10.0002L4.29096 14.6248C3.99156 14.9242 3.99156 15.4096 4.29096 15.709C4.59036 16.0084 5.07578 16.0084 5.3752 15.709L9.99974 11.0845L14.6243 15.709C14.9237 16.0084 15.4091 16.0084 15.7085 15.709C16.0079 15.4096 16.0079 14.9242 15.7085 14.6248L11.084 10.0002L15.7085 5.37567Z" fill="black"/>
</svg>
