<svg width="20" height="20" viewBox="0 0 20 20" fill="none" xmlns="http://www.w3.org/2000/svg">
<path d="M18.1716 8.36775H17.5003V8.33317H10.0003V11.6665H14.7099C14.0228 13.6069 12.1766 14.9998 10.0003 14.9998C7.23908 14.9998 5.00033 12.7611 5.00033 9.99984C5.00033 7.23859 7.23908 4.99984 10.0003 4.99984C11.2749 4.99984 12.4345 5.48067 13.3174 6.26609L15.6745 3.909C14.1862 2.52192 12.1953 1.6665 10.0003 1.6665C5.39824 1.6665 1.66699 5.39775 1.66699 9.99984C1.66699 14.6019 5.39824 18.3332 10.0003 18.3332C14.6024 18.3332 18.3337 14.6019 18.3337 9.99984C18.3337 9.44109 18.2762 8.89567 18.1716 8.36775Z" fill="#FFC107"/>
<path d="M2.62695 6.12109L5.36487 8.129C6.1057 6.29484 7.89987 4.99984 9.99945 4.99984C11.274 4.99984 12.4336 5.48067 13.3165 6.26609L15.6736 3.909C14.1853 2.52192 12.1945 1.6665 9.99945 1.6665C6.79862 1.6665 4.02279 3.47359 2.62695 6.12109Z" fill="#FF3D00"/>
<path d="M9.9998 18.3331C12.1523 18.3331 14.1081 17.5094 15.5869 16.1698L13.0077 13.9873C12.1711 14.621 11.1311 14.9998 9.9998 14.9998C7.8323 14.9998 5.99189 13.6177 5.29855 11.689L2.58105 13.7827C3.96022 16.4815 6.76105 18.3331 9.9998 18.3331Z" fill="#4CAF50"/>
<path d="M18.1712 8.36808H17.5V8.3335H10V11.6668H14.7096C14.3796 12.5989 13.78 13.4027 13.0067 13.9881L13.0079 13.9872L15.5871 16.1697C15.4046 16.3356 18.3333 14.1668 18.3333 10.0002C18.3333 9.44141 18.2758 8.896 18.1712 8.36808Z" fill="#1976D2"/>
</svg>
