<svg width="20" height="20" viewBox="0 0 20 20" fill="none" xmlns="http://www.w3.org/2000/svg">
<path fill-rule="evenodd" clip-rule="evenodd" d="M1.66504 4.04647C1.66504 3.41487 1.91594 2.80915 2.36254 2.36254C2.80915 1.91594 3.41487 1.66504 4.04647 1.66504H5.13557C5.81825 1.66504 6.41361 2.13021 6.57951 2.79225L7.45667 6.30327C7.52775 6.58745 7.5134 6.88629 7.4154 7.16235C7.3174 7.43841 7.14012 7.67941 6.90577 7.85517L5.87937 8.62516C5.77221 8.70534 5.74919 8.82282 5.77935 8.90458C6.22736 10.123 6.93482 11.2294 7.85274 12.1473C8.77066 13.0653 9.87712 13.7727 11.0955 14.2207C11.1773 14.2509 11.2939 14.2279 11.3749 14.1207L12.1449 13.0943C12.3207 12.86 12.5617 12.6827 12.8377 12.5847C13.1138 12.4867 13.4126 12.4723 13.6968 12.5434L17.2078 13.4206C17.8699 13.5865 18.335 14.1818 18.335 14.8653V15.9536C18.335 16.5852 18.0841 17.1909 17.6375 17.6375C17.1909 18.0841 16.5852 18.335 15.9536 18.335H14.1675C7.26298 18.335 1.66504 12.7371 1.66504 5.83254V4.04647Z" fill="white"/>
</svg>
