<svg width="120" height="120" viewBox="0 0 120 120" fill="none" xmlns="http://www.w3.org/2000/svg">
<rect width="120" height="120" rx="24" fill="white"/>
<path d="M60.9048 32.6781C63.368 32.915 65.8312 34.1466 67.8208 36.1361C69.2576 37.5888 70.1893 39.0414 70.8366 40.8889C71.2314 42.0415 71.2788 42.3415 71.2788 44.4416C71.2788 47.0311 71.0577 47.9312 69.9208 50.126C69.3208 51.2944 67.5208 53.805 66.4944 54.9261L65.9733 55.4945L59.0889 55.4629L52.1887 55.4156L51.3519 54.3892C49.4097 52.005 48.0044 49.6365 47.436 47.7575C47.2939 47.268 47.136 46.0837 47.0886 45.0732C46.9781 42.6889 47.2623 41.3941 48.3202 39.2625C48.9992 37.873 49.3308 37.4151 50.4834 36.2466C52.0308 34.6834 53.4677 33.7676 55.2678 33.1676C56.4836 32.757 58.5837 32.4412 59.4363 32.536C59.7047 32.5676 60.3521 32.6307 60.9048 32.6781ZM77.3895 56.3314C77.9105 56.584 78.5737 57.0893 78.9526 57.5156C79.3158 57.9262 80.8632 60.5631 82.4422 63.4684C86.7529 71.316 86.516 70.8265 86.6265 72.4055L86.7213 73.7635L85.7423 73.8582C84.1791 74.0003 83.6738 74.5056 83.6738 75.9741C83.6738 76.7162 84.037 77.5057 84.4475 77.6952C84.5896 77.7583 85.1265 77.8531 85.6476 77.9004L86.595 77.9952V79.4163C86.5792 81.0268 86.3581 81.6111 85.537 82.2111C85.0949 82.5111 84.7791 82.59 83.5949 82.6216L82.158 82.6848L81.9843 81.6268C81.6054 79.432 80.2632 77.6478 78.2421 76.653C77.2947 76.1793 76.9631 76.1004 75.6999 76.053C74.4999 75.9898 74.042 76.053 73.2367 76.3214C70.8366 77.1267 68.8945 79.5426 68.7997 81.8637L68.7682 82.6532H60.5258H52.2993L52.2045 81.7058C51.9835 79.6531 50.5466 77.7109 48.4939 76.7004C47.3254 76.1162 47.2465 76.1004 45.5412 76.1004C43.8359 76.1004 43.7569 76.1162 42.5885 76.6846C41.8463 77.0636 41.1516 77.553 40.7411 78.011C39.8568 78.9583 39.1463 80.5058 39.0357 81.7058L38.941 82.6532H37.062C34.883 82.6532 34.2988 82.4637 33.683 81.5637C33.1461 80.7742 33.1461 79.1794 33.6672 78.3899C34.0303 77.8531 34.0461 77.7109 34.3935 69.0739C34.583 64.2579 34.7725 60.0894 34.8356 59.8368C35.1672 58.1314 36.9041 56.4103 38.7515 55.9524C39.02 55.8893 47.6097 55.8577 57.8573 55.8577L76.4894 55.8893L77.3895 56.3314ZM47.4044 78.8952C48.9676 79.5742 50.1361 81.3742 50.1045 83.1269C50.0887 84.6743 49.1255 86.1743 47.657 86.9954C46.9149 87.406 46.6465 87.4691 45.6201 87.4691C44.2622 87.4691 43.4885 87.1375 42.5411 86.2059C41.5621 85.2269 41.2779 84.4848 41.2779 82.969C41.2779 81.4689 41.4516 81.0268 42.4148 79.9531C43.7569 78.4689 45.5254 78.1057 47.4044 78.8952ZM77.1368 78.8478C78.6526 79.5268 79.8843 81.3268 79.8843 82.89C79.8843 84.6111 78.8895 86.2059 77.2947 87.0428C76.1578 87.627 74.6104 87.627 73.4735 87.0428C71.8946 86.2217 70.9787 84.7059 70.9945 82.969C71.0103 81.3268 71.7051 80.0794 73.0788 79.1952C74.3736 78.3583 75.7315 78.2478 77.1368 78.8478Z" fill="#D83E3E"/>
<path d="M57.6204 39.0569C54.1151 40.178 52.3782 44.1254 53.973 47.3466C54.6046 48.6414 55.8677 49.8256 57.1152 50.2835C58.3941 50.773 60.3363 50.694 61.5995 50.094C62.7206 49.573 63.7785 48.515 64.3627 47.315C64.7575 46.5097 64.8048 46.2571 64.8048 44.757C64.8048 43.257 64.7575 43.0043 64.3627 42.1991C63.7785 41.0148 62.7995 40.0201 61.6469 39.4516C60.8574 39.0727 60.4784 38.9937 59.3573 38.9621C58.6152 38.9463 57.8415 38.9779 57.6204 39.0569Z" fill="white"/>
<path d="M39.1617 60.7683C38.4512 61.1631 38.3722 61.542 38.3564 64.6211C38.3564 67.858 38.4512 68.2843 39.3196 68.5843C40.0618 68.837 53.9885 68.8212 54.5411 68.5686C55.3148 68.2212 55.4096 67.7791 55.4096 64.4948V61.4631L54.9517 61.0052L54.4937 60.5473H47.0093C41.1197 60.5631 39.4617 60.5946 39.1617 60.7683Z" fill="white"/>
<path d="M58.3152 60.7843C57.6836 61.2106 57.6046 61.7632 57.652 64.8581L57.6993 67.8108L58.1415 68.2371L58.5678 68.6792L62.2311 68.7266C64.8048 68.7582 66.0206 68.7266 66.3364 68.5845C67.1891 68.2371 67.2838 67.8108 67.2207 64.3844L67.1733 61.3053L66.7312 60.9264C66.2891 60.5474 66.2733 60.5474 62.4679 60.5474C59.3573 60.5474 58.5678 60.5948 58.3152 60.7843Z" fill="white"/>
<path d="M70.1423 60.926L69.7002 61.305V64.5735V67.842L70.2213 68.2999L70.7265 68.7578H74.974C79.0794 68.7578 79.2215 68.742 79.6478 68.4104C80.011 68.1262 80.0584 67.9841 79.9952 67.5104C79.9005 66.8314 76.9951 61.3997 76.4583 60.8944C76.0951 60.5628 75.953 60.5471 73.3319 60.5471C70.6634 60.5471 70.5686 60.5628 70.1423 60.926Z" fill="white"/>
<path d="M44.8466 81.6112C43.2992 82.4639 44.215 84.9429 45.9361 84.6113C46.9624 84.3902 47.4993 83.3323 47.0887 82.2902C46.7572 81.4533 45.6992 81.1375 44.8466 81.6112Z" fill="white"/>
<path d="M74.7368 81.5477C73.9315 81.8635 73.6157 83.1898 74.1368 83.9951C74.8632 85.1004 76.7264 84.6741 76.979 83.3319C77.2316 82.0056 76 81.0266 74.7368 81.5477Z" fill="white"/>
</svg>
