<svg width="113" height="112" viewBox="0 0 113 112" fill="none" xmlns="http://www.w3.org/2000/svg">
<g filter="url(#filter0_d_116_3159)">
<rect x="16.5" y="12" width="80" height="80" rx="16" fill="#D83E3E"/>
<path d="M57.1032 33.7851C58.7453 33.943 60.3875 34.764 61.7138 36.0904C62.6718 37.0589 63.2928 38.0273 63.7244 39.2589C63.9876 40.0274 64.0192 40.2274 64.0192 41.6274C64.0192 43.3538 63.8718 43.9538 63.1139 45.417C62.7139 46.1959 61.5138 47.8697 60.8296 48.6171L60.4822 48.996L55.8926 48.975L51.2925 48.9434L50.7346 48.2592C49.4398 46.6696 48.5029 45.0907 48.124 43.838C48.0292 43.5117 47.924 42.7222 47.8924 42.0485C47.8187 40.4589 48.0082 39.5958 48.7135 38.1747C49.1661 37.2483 49.3872 36.9431 50.1556 36.1641C51.1872 35.122 52.1452 34.5114 53.3452 34.1114C54.1557 33.8377 55.5558 33.6272 56.1242 33.6903C56.3032 33.7114 56.7348 33.7535 57.1032 33.7851ZM68.093 49.5539C68.4403 49.7224 68.8825 50.0592 69.1351 50.3434C69.3772 50.6171 70.4088 52.3751 71.4615 54.312C74.3352 59.5437 74.1773 59.2174 74.251 60.27L74.3142 61.1753L73.6615 61.2385C72.6194 61.3332 72.2826 61.6701 72.2826 62.649C72.2826 63.1438 72.5247 63.6701 72.7984 63.7964C72.8931 63.8386 73.251 63.9017 73.5984 63.9333L74.23 63.9965V64.9438C74.2195 66.0176 74.0721 66.407 73.5247 66.8071C73.2299 67.0071 73.0194 67.0597 72.2299 67.0807L71.272 67.1229L71.1562 66.4176C70.9036 64.9544 70.0088 63.7649 68.6614 63.1017C68.0298 62.7859 67.8087 62.7333 66.9666 62.7017C66.1666 62.6596 65.8613 62.7017 65.3245 62.8806C63.7244 63.4175 62.4297 65.0281 62.3665 66.5755L62.3454 67.1018H56.8505H51.3662L51.303 66.4702C51.1557 65.1017 50.1977 63.807 48.8293 63.1333C48.0503 62.7438 47.9977 62.7333 46.8608 62.7333C45.7239 62.7333 45.6713 62.7438 44.8923 63.1227C44.3976 63.3754 43.9344 63.7017 43.6607 64.007C43.0712 64.6386 42.5975 65.6702 42.5238 66.4702L42.4607 67.1018H41.208C39.7553 67.1018 39.3658 66.9755 38.9553 66.3755C38.5974 65.8491 38.5974 64.7859 38.9448 64.2596C39.1869 63.9017 39.1974 63.807 39.429 58.0489C39.5553 54.8383 39.6816 52.0593 39.7237 51.8908C39.9448 50.754 41.1027 49.6066 42.3343 49.3013C42.5133 49.2592 48.2398 49.2381 55.0716 49.2381L67.4929 49.2592L68.093 49.5539ZM48.1029 64.5965C49.1451 65.0491 49.924 66.2491 49.903 67.4176C49.8925 68.4492 49.2503 69.4492 48.2714 69.9966C47.7766 70.2703 47.5977 70.3124 46.9134 70.3124C46.0081 70.3124 45.4923 70.0914 44.8607 69.4703C44.2081 68.8176 44.0186 68.3229 44.0186 67.3123C44.0186 66.3123 44.1344 66.0176 44.7765 65.3018C45.6713 64.3123 46.8503 64.0701 48.1029 64.5965ZM67.9245 64.5649C68.9351 65.0175 69.7562 66.2176 69.7562 67.2597C69.7562 68.4071 69.093 69.4703 68.0298 70.0282C67.2719 70.4177 66.2403 70.4177 65.4824 70.0282C64.4297 69.4808 63.8192 68.4703 63.8297 67.3123C63.8402 66.2176 64.3034 65.386 65.2192 64.7965C66.0824 64.2386 66.9877 64.1649 67.9245 64.5649Z" fill="white"/>
<path d="M54.9139 38.0381C52.577 38.7855 51.4191 41.4171 52.4823 43.5645C52.9034 44.4277 53.7455 45.2172 54.5771 45.5225C55.4297 45.8488 56.7245 45.7962 57.5667 45.3962C58.314 45.0488 59.0193 44.3435 59.4088 43.5435C59.672 43.0066 59.7036 42.8382 59.7036 41.8382C59.7036 40.8382 59.672 40.6697 59.4088 40.1329C59.0193 39.3434 58.3667 38.6802 57.5982 38.3012C57.0719 38.0486 56.8193 37.996 56.0719 37.9749C55.5771 37.9644 55.0613 37.9854 54.9139 38.0381Z" fill="#D83E3E"/>
<path d="M42.6081 52.5119C42.1344 52.7751 42.0818 53.0277 42.0713 55.0804C42.0713 57.2383 42.1344 57.5226 42.7134 57.7226C43.2082 57.891 52.4926 57.8805 52.8611 57.712C53.3769 57.4805 53.44 57.1857 53.44 54.9962V52.9751L53.1348 52.6698L52.8295 52.3645H47.8399C43.9134 52.3751 42.8082 52.3961 42.6081 52.5119Z" fill="#D83E3E"/>
<path d="M55.3764 52.5224C54.9554 52.8066 54.9027 53.175 54.9343 55.2382L54.9659 57.2067L55.2607 57.4909L55.5449 57.7857L57.987 57.8172C59.7029 57.8383 60.5134 57.8172 60.724 57.7225C61.2924 57.4909 61.3556 57.2067 61.3135 54.9224L61.2819 52.8697L60.9871 52.6171C60.6924 52.3645 60.6819 52.3645 58.1449 52.3645C56.0712 52.3645 55.5449 52.396 55.3764 52.5224Z" fill="#D83E3E"/>
<path d="M63.2615 52.6172L62.9668 52.8698V55.0488V57.2278L63.3142 57.5331L63.651 57.8384H66.4827C69.2196 57.8384 69.3143 57.8279 69.5986 57.6068C69.8407 57.4173 69.8723 57.3226 69.8301 57.0068C69.767 56.5541 67.8301 52.933 67.4722 52.5961C67.2301 52.3751 67.1353 52.3645 65.3879 52.3645C63.6089 52.3645 63.5458 52.3751 63.2615 52.6172Z" fill="#D83E3E"/>
<path d="M46.3974 66.407C45.3658 66.9754 45.9763 68.6281 47.1237 68.407C47.808 68.2597 48.1659 67.5544 47.8922 66.8596C47.6711 66.3017 46.9658 66.0912 46.3974 66.407Z" fill="#D83E3E"/>
<path d="M66.3249 66.3653C65.788 66.5758 65.5775 67.4601 65.9249 67.9969C66.4091 68.7338 67.6512 68.4496 67.8197 67.5548C67.9881 66.6706 67.167 66.0179 66.3249 66.3653Z" fill="#D83E3E"/>
</g>
<defs>
<filter id="filter0_d_116_3159" x="0.5" y="0" width="112" height="112" filterUnits="userSpaceOnUse" color-interpolation-filters="sRGB">
<feFlood flood-opacity="0" result="BackgroundImageFix"/>
<feColorMatrix in="SourceAlpha" type="matrix" values="0 0 0 0 0 0 0 0 0 0 0 0 0 0 0 0 0 0 127 0" result="hardAlpha"/>
<feOffset dy="4"/>
<feGaussianBlur stdDeviation="8"/>
<feComposite in2="hardAlpha" operator="out"/>
<feColorMatrix type="matrix" values="0 0 0 0 0 0 0 0 0 0 0 0 0 0 0 0 0 0 0.2 0"/>
<feBlend mode="normal" in2="BackgroundImageFix" result="effect1_dropShadow_116_3159"/>
<feBlend mode="normal" in="SourceGraphic" in2="effect1_dropShadow_116_3159" result="shape"/>
</filter>
</defs>
</svg>
